<?xml version="1.0" encoding="utf-8"?>
<!-- Uploaded to: SVG Repo, www.svgrepo.com, Generator: SVG Repo Mixer Tools -->
<svg width="800px" height="800px" viewBox="0 0 1024 1024" class="icon"  version="1.1" xmlns="http://www.w3.org/2000/svg"><path d="M783.6 702.6l-324.5-0.4c-2.6 0.2-7.3 0.3-8.9 0.3-3.3 0-6.7-0.1-9.9-0.3h-0.1c-76.2-5.4-136.6-71.7-136.6-152.5 0-83.6 65.7-151.8 146.8-152.5 17.8-78 86.3-135 165.5-135 42.8 0 83.6 16.4 115.1 46.2 26 24.7 43.8 56.8 51.1 91.9 9.8-2.1 19.8-3.1 29.9-3.1 81.7 0 148.2 68.4 148.2 152.5S893.7 702.2 812 702.2c-5.1 0-9.7 0.1-14.3 0.2-4.8 0.1-9.3 0.2-14.1 0.2z m-323-35.4l323 0.4c4.5 0 8.8-0.1 13.2-0.2 4.8-0.1 9.7-0.2 15.1-0.2 62.4 0 113.2-52.7 113.2-117.5s-50.8-117.5-113.2-117.5c-13.1 0-25.9 2.3-38.1 6.9l-21.5 8-2-22.9c-6.4-72.4-64.2-127-134.4-127-67 0-124.4 51.8-133.6 120.5l-2.3 16.8-16.9-1.7c-3.8-0.4-7.6-0.6-11.3-0.6-62.4 0-113.2 52.7-113.2 117.5 0 61.9 45.5 112.9 103.1 117.5l16-0.1c0.9-0.1 2 0 2.9 0.1z" fill="#1A1A1A" /><path d="M624.4 436.8c-17.2 0-33.7 3.2-48.9 9-7.9-91.2-80-162.6-167.9-162.6-85.2 0-155.6 67.1-167 154.3-4.8-0.5-9.6-0.8-14.5-0.8-79.9 0-144.6 68.8-144.6 153.6s63 153.9 142.8 153.9c2.2 0 15.4-0.5 8.2-0.5v0.2l360.7 0.4c10.5 0 19.9-0.4 31.3-0.4 79.9 0 144.6-68.8 144.6-153.6-0.1-84.8-64.8-153.5-144.7-153.5z" fill="#00B36A" /><path d="M106.9 503.8C96 525.4 89.8 550 89.8 576.2c0 84.8 63 153.9 142.8 153.9 1.4 0 6.9-0.2 9.3-0.4h-1.1v-0.2c2.7 0 2.5 0.1 1.1 0.2l359.6 0.4c4.8 0 9.4-0.1 14-0.2l1.4-2c-297.7 0.1-457.7-32.7-510-224.1z" fill="#009957" /><path d="M593.2 761.9l-359-0.4c-0.9 0.1-2.1 0.1-3.3 0.2-2.7 0.1-5.6 0.2-6.6 0.2-43.4 0-84-18-114.2-50.8C80.4 678.9 64 636 64 590.5c0-94.3 72.7-171 162-171.1 18.8-88.6 94.3-153.6 181.7-153.6 46.9 0 91.7 18.5 126.2 52.1 29 28.2 48.5 65.1 56.2 105.4 11.3-2.6 22.8-3.9 34.4-3.9 26.9 0 53.6 7.1 77.1 20.6 8.4 4.8 11.3 15.5 6.5 23.9-4.8 8.4-15.5 11.3-23.9 6.5-18.2-10.4-38.9-15.9-59.7-15.9-14.6 0-29 2.7-42.7 7.9l-21.7 8.3-2-23.1C550.9 364 486.2 301 407.6 301c-75 0-139.3 59.8-149.7 139.1l-2.2 16.9-17-1.8c-4.2-0.4-8.5-0.7-12.7-0.7-70.1 0-127.1 61-127.1 136 0 71.8 51.3 130.9 116 136l17.5-0.2h2.2c0.7 0 1.3 0.1 2 0.2l356.5 0.4c5 0 9.8-0.1 14.6-0.2 5.2-0.1 10.7-0.2 16.6-0.2 60 0 112.3-45.6 124.4-108.4 1.8-9.5 11-15.7 20.5-13.9 9.5 1.8 15.7 11 13.9 20.5C767.8 704 701 761.5 624.3 761.5c-5.6 0-10.8 0.1-15.9 0.2-4.9 0.1-9.9 0.2-15.2 0.2z" fill="#1A1A1A" /></svg>